#!OML:ASF F:\VICON\USERDATA\INSTALL\rory3\rory3.ASF
:FULLY-SPECIFIED
:DEGREES
586
root 4.58146 17.3796 2.31972 4.2514 -10.06 -5.8147
lowerback 13.0106 -0.354244 3.12332
upperback 5.22272 -0.0790048 1.36946
thorax -1.81117 -0.030828 -0.323327
lowerneck -12.1954 -0.549809 -2.23246
upperneck 35.4148 -0.355152 0.0423282
head 14.1339 -0.49738 0.345296
rclavicle -1.56046e-014 -5.1684e-015
rhumerus -34.3844 -2.30653 -16.6015
rradius 35.5409
rwrist 7.91653
rhand -21.1904 -44.2679
rfingers 7.12502
rthumb 5.19051 -74.1843
lclavicle -1.56046e-014 -5.1684e-015
lhumerus -33.5021 2.47608 14.3816
lradius 28.6632
lwrist 10.4601
lhand -26.3507 -39.1887
lfingers 7.12502
lthumb 0.207041 -9.20903
rfemur -102.059 2.54309 27.5768
rtibia 100.711
rfoot 48.5491 4.53278
rtoes -5.05791
lfemur -17.2244 0.539669 -23.0589
ltibia 29.8751
lfoot -14.0528 7.0499
ltoes 13.5234
587
root 4.5816 17.3764 2.31151 4.34073 -10.0841 -5.97724
lowerback 13.0256 -0.369496 3.32519
upperback 5.25429 -0.074937 1.39174
thorax -1.78536 -0.0264922 -0.414218
lowerneck -12.2699 -0.558844 -2.41502
upperneck 35.3603 -0.404566 0.293297
head 14.1275 -0.508881 0.471643
rclavicle 1.49089e-015 6.36111e-015
rhumerus -34.2135 -2.52384 -16.5769
rradius 35.3833
rwrist 8.12586
rhand -21.4238 -44.1745
rfingers 7.12502
rthumb 4.9651 -74.0963
lclavicle 1.49089e-015 6.36111e-015
lhumerus -33.4359 2.78352 14.2563
lradius 28.9272
lwrist 10.8224
lhand -25.5429 -38.9634
lfingers 7.12502
lthumb 0.987231 -8.98593
rfemur -102.014 2.63238 27.7391
rtibia 100.545
rfoot 48.7329 4.22586
rtoes -4.23204
lfemur -17.4313 0.638691 -22.8714
ltibia 30.0559
lfoot -14.115 6.9545
ltoes 13.8174
588
root 4.58257 17.3727 2.312 4.3224 -10.1328 -5.86476
lowerback 12.9411 -0.372438 3.25086
upperback 5.35607 -0.0965511 1.34339
thorax -1.63428 -0.0350249 -0.420105
lowerneck -12.318 -0.52662 -2.48983
upperneck 35.2121 -0.382911 0.43136
head 14.0706 -0.489531 0.543787
rclavicle 2.21645e-014 -1.74931e-014
rhumerus -34.0143 -2.59997 -16.6383
rradius 35.2973
rwrist 7.96697
rhand -21.5149 -44.325
rfingers 7.12502
rthumb 4.8772 -74.2488
lclavicle 2.21645e-014 -1.74931e-014
lhumerus -33.2875 3.48883 13.9653
lradius 29.2577
lwrist 11.3517
lhand -24.27 -35.2146
lfingers 7.12502
lthumb 2.21659 -5.24635
rfemur -102.01 2.63823 27.6274
rtibia 100.492
rfoot 48.7723 4.19518
rtoes -4.49183
lfemur -17.4674 0.694177 -23.0028
ltibia 30.1577
lfoot -14.138 6.94803
ltoes 13.76
589
root 4.58439 17.371 2.31143 4.27963 -10.2684 -5.7126
lowerback 12.9712 -0.339936 3.10308
upperback 5.39152 -0.0729035 1.28913
thorax -1.61317 -0.0241127 -0.396747
lowerneck -12.2881 -0.469776 -2.46142
upperneck 35.1044 -0.307848 0.432328
head 14.0132 -0.452336 0.550348
rclavicle 1.15295e-014 -1.59028e-014
rhumerus -33.8635 -2.59274 -16.694
rradius 35.2832
rwrist 7.78711
rhand -21.3934 -44.7609
rfingers 7.12502
rthumb 4.99454 -74.6821
lclavicle 1.15295e-014 -1.59028e-014
lhumerus -33.2351 3.81722 13.83
lradius 29.4995
lwrist 11.4019
lhand -23.8215 -32.9763
lfingers 7.12502
lthumb 2.64971 -3.01299
rfemur -101.981 2.69501 27.4705
rtibia 100.419
rfoot 48.8187 4.40076
rtoes -4.8547
lfemur -17.4223 0.788695 -23.1852
ltibia 30.1283
lfoot -14.085 6.99792
ltoes 13.3459
590
root 4.58519 17.3751 2.30646 4.26453 -10.3796 -5.64653
lowerback 13.1006 -0.312284 3.01797
upperback 5.34726 -0.0405633 1.26745
thorax -1.72863 -0.0105855 -0.375626
lowerneck -12.2913 -0.452168 -2.47271
upperneck 35.1977 -0.282586 0.440377
head 14.0558 -0.443178 0.559611
rclavicle -1.6201e-014 1.39149e-014
rhumerus -33.8608 -2.42463 -16.7389
rradius 35.4703
rwrist 7.79709
rhand -21.0178 -45.3473
rfingers 7.12502
rthumb 5.35718 -75.2595
lclavicle -1.6201e-014 1.39149e-014
lhumerus -33.198 3.75588 13.8452
lradius 29.7829
lwrist 11.3479
lhand -23.5806 -33.297
lfingers 7.12502
lthumb 2.88243 -3.3367
rfemur -101.87 2.74215 27.4184
rtibia 100.258
rfoot 48.6137 4.47612
rtoes -5.73579
lfemur -17.4056 0.785436 -23.2478
ltibia 30.0627
lfoot -14.0911 7.00937
ltoes 13.7128
591
root 4.58493 17.3806 2.30054 4.27533 -10.4025 -5.56858
lowerback 13.1794 -0.304743 2.91759
upperback 5.30738 -0.0385827 1.25515
thorax -1.81311 -0.0118054 -0.332003
lowerneck -12.4472 -0.477792 -2.50454
upperneck 35.4567 -0.315569 0.460503
head 14.2104 -0.461812 0.568889
rclavicle 9.54166e-015 -4.57205e-015
rhumerus -33.9041 -2.34701 -16.7411
rradius 35.6978
rwrist 8.00977
rhand -20.6292 -45.709
rfingers 7.12502
rthumb 5.7324 -75.6114
lclavicle 9.54166e-015 -4.57205e-015
lhumerus -33.03 3.66686 13.9252
lradius 29.7597
lwrist 11.1906
lhand -24.2391 -32.08
lfingers 7.12502
lthumb 2.24641 -2.11208
rfemur -101.783 2.71337 27.3774
rtibia 100.089
rfoot 48.0884 4.49975
rtoes -6.897
lfemur -17.459 0.676287 -23.3078
ltibia 30.0659
lfoot -14.1375 7.03628
ltoes 14.4204
592
root 4.58288 17.3775 2.29142 4.35441 -10.3667 -5.59878
lowerback 13.2179 -0.302619 2.9252
upperback 5.27407 -0.0315037 1.27754
thorax -1.86852 -0.0092108 -0.313862
lowerneck -12.4723 -0.509474 -2.50883
upperneck 35.5388 -0.353469 0.440129
head 14.2547 -0.482124 0.55572
rclavicle 1.31198e-014 1.27222e-014
rhumerus -33.9063 -2.56329 -16.6427
rradius 35.6752
rwrist 8.50431
rhand -20.5003 -45.5368
rfingers 7.12502
rthumb 5.85676 -75.4358
lclavicle 1.31198e-014 1.27222e-014
lhumerus -32.8562 3.55122 14.0545
lradius 29.6567
lwrist 11.0666
lhand -25.359 -30.6431
lfingers 7.12502
lthumb 1.16486 -0.66658
rfemur -101.792 2.70044 27.4455
rtibia 99.9368
rfoot 48.0794 4.59203
rtoes -6.28572
lfemur -17.6393 0.730067 -23.2504
ltibia 30.1395
lfoot -14.0984 6.95552
ltoes 14.1506
593
root 4.58034 17.3688 2.28611 4.3988 -10.3465 -5.69504
lowerback 13.219 -0.305325 3.0366
upperback 5.28743 -0.0213221 1.29844
thorax -1.85436 -0.00298123 -0.356258
lowerneck -12.3713 -0.530083 -2.43846
upperneck 35.4496 -0.370286 0.339268
head 14.1908 -0.492384 0.4996
rclavicle -1.49089e-014 -2.08724e-014
rhumerus -33.87 -2.85697 -16.5478
rradius 35.5737
rwrist 8.96461
rhand -20.4851 -45.2113
rfingers 7.12502
rthumb 5.8715 -75.1099
lclavicle -1.49089e-014 -2.08724e-014
lhumerus -32.8094 3.43602 14.1443
lradius 29.6242
lwrist 10.9382
lhand -25.8763 -33.2787
lfingers 7.12502
lthumb 0.665264 -3.29995
rfemur -101.779 2.71627 27.5681
rtibia 99.8436
rfoot 48.55 4.43326
rtoes -4.57396
lfemur -17.7829 0.926631 -23.1264
ltibia 30.2731
lfoot -14.1476 6.73845
ltoes 13.9389
594
root 4.58023 17.3675 2.28596 4.40474 -10.367 -5.76089
lowerback 13.1343 -0.307148 3.16857
upperback 5.34815 -0.0140313 1.2791
thorax -1.74439 0.00394121 -0.451924
lowerneck -12.3673 -0.551365 -2.34702
upperneck 35.3986 -0.394255 0.247463
head 14.1665 -0.502131 0.442402
rclavicle -1.46107e-014 3.97569e-015
rhumerus -33.827 -2.95738 -16.5811
rradius 35.537
rwrist 8.95851
rhand -20.5707 -45.2925
rfingers 7.12502
rthumb 5.7888 -75.1934
lclavicle -1.46107e-014 3.97569e-015
lhumerus -32.7316 3.62128 14.0729
lradius 29.3873
lwrist 10.6297
lhand -25.6535 -32.4536
lfingers 7.12502
lthumb 0.880415 -2.47567
rfemur -101.696 2.72219 27.6564
rtibia 99.7384
rfoot 48.7296 4.19768
rtoes -3.96842
lfemur -17.852 1.03036 -23.0422
ltibia 30.4324
lfoot -14.4553 6.58037
ltoes 14.7485
